<?xml version="1.0" encoding="UTF-8"?>
<svg id="Layer_1" data-name="Layer 1" xmlns="http://www.w3.org/2000/svg" viewBox="0 0 1021.64 1176">
  <defs>
    <style>
      .cls-1 {
        fill: #f29f05;
      }
    </style>
  </defs>
  <polygon class="cls-1" points="1021.64 287.59 1021.64 589.98 911.24 527.02 909.94 353.64 508.79 131.34 120.31 359.4 119.46 402.25 775.67 797.78 654.12 859.92 321.63 665.58 321.63 835.67 204.92 772.71 200.77 590.98 3.07 482.96 1.03 288.58 513.94 0 1021.64 287.59"/>
  <polygon class="cls-1" points="700.01 508.08 700.01 337.99 818.79 411.48 823.03 583.64 1018.58 696.98 1020.62 891.38 513.44 1176 0 882.92 0 583.68 116.71 646.64 119.41 819.39 513.47 1043.49 906.94 815.5 907.09 764.22 246 382.16 367.38 319.97 700.01 508.08"/>
</svg>